<mxfile host="app.diagrams.net" modified="2023-02-08T08:10:56.778Z" agent="5.0 (Windows NT 10.0; Win64; x64) AppleWebKit/537.36 (KHTML, like Gecko) Chrome/109.0.0.0 Safari/537.36" etag="KUjMbHjDD9BGz_g-5rKb" version="20.8.16" type="github">
  <diagram name="Pagina-1" id="6l-LsoKqUjrPrVZIgJ_k">
    <mxGraphModel dx="600" dy="330" grid="1" gridSize="5" guides="1" tooltips="1" connect="1" arrows="1" fold="1" page="1" pageScale="1" pageWidth="827" pageHeight="1169" math="0" shadow="0">
      <root>
        <mxCell id="0" />
        <mxCell id="1" parent="0" />
        <mxCell id="LfVebEQunFbGqOXE0l1t-1" value="" style="rounded=0;whiteSpace=wrap;html=1;" vertex="1" parent="1">
          <mxGeometry x="240" y="160" width="200" height="200" as="geometry" />
        </mxCell>
        <mxCell id="LfVebEQunFbGqOXE0l1t-2" value="" style="rounded=0;whiteSpace=wrap;html=1;" vertex="1" parent="1">
          <mxGeometry x="520" y="160" width="200" height="200" as="geometry" />
        </mxCell>
        <mxCell id="LfVebEQunFbGqOXE0l1t-3" value="" style="endArrow=classic;html=1;rounded=0;entryX=0.5;entryY=0;entryDx=0;entryDy=0;" edge="1" parent="1" target="LfVebEQunFbGqOXE0l1t-1">
          <mxGeometry width="50" height="50" relative="1" as="geometry">
            <mxPoint x="480" y="100" as="sourcePoint" />
            <mxPoint x="550" y="120" as="targetPoint" />
            <Array as="points">
              <mxPoint x="340" y="100" />
            </Array>
          </mxGeometry>
        </mxCell>
        <mxCell id="LfVebEQunFbGqOXE0l1t-4" value="" style="endArrow=classic;html=1;rounded=0;entryX=0.5;entryY=0;entryDx=0;entryDy=0;" edge="1" parent="1" target="LfVebEQunFbGqOXE0l1t-2">
          <mxGeometry width="50" height="50" relative="1" as="geometry">
            <mxPoint x="480" y="40" as="sourcePoint" />
            <mxPoint x="550" y="120" as="targetPoint" />
            <Array as="points">
              <mxPoint x="480" y="100" />
              <mxPoint x="620" y="100" />
            </Array>
          </mxGeometry>
        </mxCell>
        <mxCell id="LfVebEQunFbGqOXE0l1t-13" value="" style="endArrow=classic;html=1;rounded=0;entryX=0;entryY=0.5;entryDx=0;entryDy=0;exitX=1;exitY=0.5;exitDx=0;exitDy=0;" edge="1" parent="1">
          <mxGeometry width="50" height="50" relative="1" as="geometry">
            <mxPoint x="440" y="320" as="sourcePoint" />
            <mxPoint x="520" y="320" as="targetPoint" />
          </mxGeometry>
        </mxCell>
        <mxCell id="LfVebEQunFbGqOXE0l1t-14" value="" style="endArrow=classic;html=1;rounded=0;entryX=0;entryY=0.5;entryDx=0;entryDy=0;exitX=1;exitY=0.5;exitDx=0;exitDy=0;" edge="1" parent="1">
          <mxGeometry width="50" height="50" relative="1" as="geometry">
            <mxPoint x="440" y="280" as="sourcePoint" />
            <mxPoint x="520" y="280" as="targetPoint" />
          </mxGeometry>
        </mxCell>
        <mxCell id="LfVebEQunFbGqOXE0l1t-15" value="" style="endArrow=classic;html=1;rounded=0;entryX=0;entryY=0.5;entryDx=0;entryDy=0;exitX=1;exitY=0.5;exitDx=0;exitDy=0;" edge="1" parent="1">
          <mxGeometry width="50" height="50" relative="1" as="geometry">
            <mxPoint x="440" y="240" as="sourcePoint" />
            <mxPoint x="520" y="240" as="targetPoint" />
          </mxGeometry>
        </mxCell>
        <mxCell id="LfVebEQunFbGqOXE0l1t-16" value="" style="endArrow=classic;html=1;rounded=0;entryX=0;entryY=0.5;entryDx=0;entryDy=0;exitX=1;exitY=0.5;exitDx=0;exitDy=0;" edge="1" parent="1">
          <mxGeometry width="50" height="50" relative="1" as="geometry">
            <mxPoint x="440" y="200" as="sourcePoint" />
            <mxPoint x="520" y="200" as="targetPoint" />
          </mxGeometry>
        </mxCell>
        <mxCell id="LfVebEQunFbGqOXE0l1t-20" value="" style="endArrow=none;html=1;rounded=0;" edge="1" parent="1">
          <mxGeometry width="50" height="50" relative="1" as="geometry">
            <mxPoint x="475" y="285" as="sourcePoint" />
            <mxPoint x="485" y="275" as="targetPoint" />
          </mxGeometry>
        </mxCell>
        <mxCell id="LfVebEQunFbGqOXE0l1t-21" value="" style="endArrow=none;html=1;rounded=0;" edge="1" parent="1">
          <mxGeometry width="50" height="50" relative="1" as="geometry">
            <mxPoint x="475" y="325" as="sourcePoint" />
            <mxPoint x="485" y="315" as="targetPoint" />
          </mxGeometry>
        </mxCell>
        <mxCell id="LfVebEQunFbGqOXE0l1t-22" value="" style="endArrow=none;html=1;rounded=0;" edge="1" parent="1">
          <mxGeometry width="50" height="50" relative="1" as="geometry">
            <mxPoint x="475" y="245" as="sourcePoint" />
            <mxPoint x="485" y="235" as="targetPoint" />
          </mxGeometry>
        </mxCell>
        <mxCell id="LfVebEQunFbGqOXE0l1t-23" value="" style="endArrow=none;html=1;rounded=0;" edge="1" parent="1">
          <mxGeometry width="50" height="50" relative="1" as="geometry">
            <mxPoint x="475" y="205" as="sourcePoint" />
            <mxPoint x="485" y="195" as="targetPoint" />
          </mxGeometry>
        </mxCell>
        <mxCell id="LfVebEQunFbGqOXE0l1t-24" value="FSM" style="text;html=1;strokeColor=none;fillColor=none;align=center;verticalAlign=middle;whiteSpace=wrap;rounded=0;" vertex="1" parent="1">
          <mxGeometry x="310" y="245" width="60" height="30" as="geometry" />
        </mxCell>
        <mxCell id="LfVebEQunFbGqOXE0l1t-25" value="DATAPATH" style="text;html=1;strokeColor=none;fillColor=none;align=center;verticalAlign=middle;whiteSpace=wrap;rounded=0;" vertex="1" parent="1">
          <mxGeometry x="590" y="245" width="60" height="30" as="geometry" />
        </mxCell>
        <mxCell id="LfVebEQunFbGqOXE0l1t-26" value="START" style="text;html=1;strokeColor=none;fillColor=none;align=center;verticalAlign=middle;whiteSpace=wrap;rounded=0;fontSize=9;" vertex="1" parent="1">
          <mxGeometry x="450" y="175" width="60" height="30" as="geometry" />
        </mxCell>
        <mxCell id="LfVebEQunFbGqOXE0l1t-27" value="SBARRA" style="text;html=1;strokeColor=none;fillColor=none;align=center;verticalAlign=middle;whiteSpace=wrap;rounded=0;fontSize=9;" vertex="1" parent="1">
          <mxGeometry x="450" y="215" width="60" height="30" as="geometry" />
        </mxCell>
        <mxCell id="LfVebEQunFbGqOXE0l1t-28" value="S1/S2/S3" style="text;html=1;strokeColor=none;fillColor=none;align=center;verticalAlign=middle;whiteSpace=wrap;rounded=0;fontSize=9;" vertex="1" parent="1">
          <mxGeometry x="450" y="255" width="60" height="30" as="geometry" />
        </mxCell>
        <mxCell id="LfVebEQunFbGqOXE0l1t-29" value="NOTTE" style="text;html=1;strokeColor=none;fillColor=none;align=center;verticalAlign=middle;whiteSpace=wrap;rounded=0;fontSize=9;" vertex="1" parent="1">
          <mxGeometry x="450" y="295" width="60" height="30" as="geometry" />
        </mxCell>
        <mxCell id="LfVebEQunFbGqOXE0l1t-31" value="1" style="text;html=1;strokeColor=none;fillColor=none;align=center;verticalAlign=middle;whiteSpace=wrap;rounded=0;fontSize=8;" vertex="1" parent="1">
          <mxGeometry x="475" y="180" width="60" height="30" as="geometry" />
        </mxCell>
        <mxCell id="LfVebEQunFbGqOXE0l1t-32" value="1" style="text;html=1;strokeColor=none;fillColor=none;align=center;verticalAlign=middle;whiteSpace=wrap;rounded=0;fontSize=8;" vertex="1" parent="1">
          <mxGeometry x="475" y="220" width="60" height="30" as="geometry" />
        </mxCell>
        <mxCell id="LfVebEQunFbGqOXE0l1t-33" value="3" style="text;html=1;strokeColor=none;fillColor=none;align=center;verticalAlign=middle;whiteSpace=wrap;rounded=0;fontSize=8;" vertex="1" parent="1">
          <mxGeometry x="475" y="260" width="60" height="30" as="geometry" />
        </mxCell>
        <mxCell id="LfVebEQunFbGqOXE0l1t-34" value="1" style="text;html=1;strokeColor=none;fillColor=none;align=center;verticalAlign=middle;whiteSpace=wrap;rounded=0;fontSize=8;" vertex="1" parent="1">
          <mxGeometry x="475" y="300" width="60" height="30" as="geometry" />
        </mxCell>
        <mxCell id="LfVebEQunFbGqOXE0l1t-35" value="" style="endArrow=classic;html=1;rounded=0;fontSize=8;exitX=0.5;exitY=1;exitDx=0;exitDy=0;" edge="1" parent="1" source="LfVebEQunFbGqOXE0l1t-1">
          <mxGeometry width="50" height="50" relative="1" as="geometry">
            <mxPoint x="490" y="390" as="sourcePoint" />
            <mxPoint x="340" y="400" as="targetPoint" />
          </mxGeometry>
        </mxCell>
        <mxCell id="LfVebEQunFbGqOXE0l1t-39" value="" style="endArrow=classic;html=1;rounded=0;fontSize=8;exitX=0.103;exitY=1.005;exitDx=0;exitDy=0;exitPerimeter=0;" edge="1" parent="1">
          <mxGeometry width="50" height="50" relative="1" as="geometry">
            <mxPoint x="540.5999999999999" y="360" as="sourcePoint" />
            <mxPoint x="540" y="440" as="targetPoint" />
          </mxGeometry>
        </mxCell>
        <mxCell id="LfVebEQunFbGqOXE0l1t-40" value="" style="endArrow=classic;html=1;rounded=0;fontSize=8;exitX=0.103;exitY=1.005;exitDx=0;exitDy=0;exitPerimeter=0;" edge="1" parent="1">
          <mxGeometry width="50" height="50" relative="1" as="geometry">
            <mxPoint x="560.5999999999999" y="360" as="sourcePoint" />
            <mxPoint x="560" y="399" as="targetPoint" />
          </mxGeometry>
        </mxCell>
        <mxCell id="LfVebEQunFbGqOXE0l1t-41" value="VALIDO" style="text;html=1;strokeColor=none;fillColor=none;align=center;verticalAlign=middle;whiteSpace=wrap;rounded=0;fontSize=8;" vertex="1" parent="1">
          <mxGeometry x="330" y="360" width="60" height="30" as="geometry" />
        </mxCell>
        <mxCell id="LfVebEQunFbGqOXE0l1t-42" value="SBARRA IN" style="text;html=1;strokeColor=none;fillColor=none;align=center;verticalAlign=middle;whiteSpace=wrap;rounded=0;fontSize=8;" vertex="1" parent="1">
          <mxGeometry x="535" y="410" width="60" height="30" as="geometry" />
        </mxCell>
        <mxCell id="LfVebEQunFbGqOXE0l1t-43" value="SBARRA OUT" style="text;html=1;strokeColor=none;fillColor=none;align=center;verticalAlign=middle;whiteSpace=wrap;rounded=0;fontSize=8;" vertex="1" parent="1">
          <mxGeometry x="560" y="370" width="60" height="30" as="geometry" />
        </mxCell>
        <mxCell id="LfVebEQunFbGqOXE0l1t-45" value="" style="endArrow=classic;html=1;rounded=0;fontSize=8;exitX=0.606;exitY=1.005;exitDx=0;exitDy=0;exitPerimeter=0;" edge="1" parent="1" source="LfVebEQunFbGqOXE0l1t-2">
          <mxGeometry width="50" height="50" relative="1" as="geometry">
            <mxPoint x="490" y="390" as="sourcePoint" />
            <mxPoint x="640" y="480" as="targetPoint" />
          </mxGeometry>
        </mxCell>
        <mxCell id="LfVebEQunFbGqOXE0l1t-46" value="" style="endArrow=classic;html=1;rounded=0;fontSize=8;exitX=0.697;exitY=1.007;exitDx=0;exitDy=0;exitPerimeter=0;" edge="1" parent="1" source="LfVebEQunFbGqOXE0l1t-2">
          <mxGeometry width="50" height="50" relative="1" as="geometry">
            <mxPoint x="490" y="390" as="sourcePoint" />
            <mxPoint x="660" y="440" as="targetPoint" />
          </mxGeometry>
        </mxCell>
        <mxCell id="LfVebEQunFbGqOXE0l1t-47" value="" style="endArrow=classic;html=1;rounded=0;fontSize=8;exitX=0.798;exitY=1.009;exitDx=0;exitDy=0;exitPerimeter=0;" edge="1" parent="1" source="LfVebEQunFbGqOXE0l1t-2">
          <mxGeometry width="50" height="50" relative="1" as="geometry">
            <mxPoint x="490" y="390" as="sourcePoint" />
            <mxPoint x="680" y="400" as="targetPoint" />
          </mxGeometry>
        </mxCell>
        <mxCell id="LfVebEQunFbGqOXE0l1t-48" value="PIANO 1 PIENO" style="text;html=1;strokeColor=none;fillColor=none;align=center;verticalAlign=middle;whiteSpace=wrap;rounded=0;fontSize=8;" vertex="1" parent="1">
          <mxGeometry x="635" y="450" width="75" height="30" as="geometry" />
        </mxCell>
        <mxCell id="LfVebEQunFbGqOXE0l1t-49" value="PIANO 2 PIENO" style="text;html=1;strokeColor=none;fillColor=none;align=center;verticalAlign=middle;whiteSpace=wrap;rounded=0;fontSize=8;" vertex="1" parent="1">
          <mxGeometry x="655" y="410" width="75" height="30" as="geometry" />
        </mxCell>
        <mxCell id="LfVebEQunFbGqOXE0l1t-50" value="PIANO 3 PIENO" style="text;html=1;strokeColor=none;fillColor=none;align=center;verticalAlign=middle;whiteSpace=wrap;rounded=0;fontSize=8;" vertex="1" parent="1">
          <mxGeometry x="675" y="370" width="75" height="30" as="geometry" />
        </mxCell>
      </root>
    </mxGraphModel>
  </diagram>
</mxfile>
